<?xml version="1.0" encoding="iso-8859-1"?>
<!-- Generator: Adobe Illustrator 19.0.0, SVG Export Plug-In . SVG Version: 6.00 Build 0)  -->
<svg version="1.1" id="Capa_1" xmlns="http://www.w3.org/2000/svg" xmlns:xlink="http://www.w3.org/1999/xlink" x="0px" y="0px"
	 viewBox="0 0 489.527 489.527" style="enable-background:new 0 0 489.527 489.527;" xml:space="preserve">
<g>
	<g>
		<g>
			
				<rect x="210.464" y="46.307" transform="matrix(-0.8935 -0.449 0.449 -0.8935 417.2299 376.1477)" width="85.498" height="184.595"/>
			<rect x="83.863" y="313.827" width="134.1" height="34.2"/>
			<path d="M405.663,277.327c0-60.6-31.9-113.9-79.7-143.8l-18.7,36.9c34.6,23,57.6,62.2,57.6,106.9c0,70.7-57.5,128.2-128.2,128.2
				c-34.6,0-65.7-13.6-88.6-35.7h-53.2c16.3,24.9,39.2,45.5,66.1,58.7h-38.1v61h225.8v-61h-35.7
				C367.563,400.927,405.663,343.427,405.663,277.327z"/>
			
				<rect x="277.843" y="7.844" transform="matrix(-0.8935 -0.449 0.449 -0.8935 555.6599 173.8512)" width="41.199" height="26.399"/>
			
				<rect x="216.894" y="240.196" transform="matrix(0.449 -0.8935 0.8935 0.449 -106.2222 341.1332)" width="13.2" height="32.999"/>
			
				<rect x="158.474" y="225.818" transform="matrix(-0.8935 -0.4491 0.4491 -0.8935 225.362 525.2878)" width="33.001" height="20.2"/>
		</g>
	</g>
</g>
<g>
</g>
<g>
</g>
<g>
</g>
<g>
</g>
<g>
</g>
<g>
</g>
<g>
</g>
<g>
</g>
<g>
</g>
<g>
</g>
<g>
</g>
<g>
</g>
<g>
</g>
<g>
</g>
<g>
</g>
</svg>
